<svg xmlns="http://www.w3.org/2000/svg" width="720" height="360" viewBox="0 0 720 360" font-family="Helvetica, Arial, sans-serif" font-size="11">
<rect width="100%" height="100%" fill="white"/>
<text x="55" y="20" font-size="14" font-weight="bold">Daily essential fill rate, S10-surge-supply-road (mean of 100 test seeds)</text>
<rect x="217.60504201680672" y="35" width="162.60504201680672" height="245" fill="#fbe9e7"/>
<rect x="55" y="35" width="645" height="245" fill="none" stroke="#ccc"/>
<text x="50" y="283" text-anchor="end">0.07</text>
<text x="50" y="221.75" text-anchor="end">0.31</text>
<text x="50" y="160.5" text-anchor="end">0.56</text>
<text x="50" y="99.25000000000003" text-anchor="end">0.80</text>
<text x="50" y="38" text-anchor="end">1.04</text>
<text x="55" y="294" text-anchor="middle">0</text>
<text x="163.4033613445378" y="294" text-anchor="middle">20</text>
<text x="271.8067226890756" y="294" text-anchor="middle">40</text>
<text x="380.21008403361344" y="294" text-anchor="middle">60</text>
<text x="488.6134453781513" y="294" text-anchor="middle">80</text>
<text x="597.0168067226891" y="294" text-anchor="middle">100</text>
<polyline fill="none" stroke="#9e9e9e" stroke-width="1.8" points="55.0,46.1 60.4,46.1 65.8,46.1 71.3,46.1 76.7,46.1 82.1,46.1 87.5,46.1 92.9,46.3 98.4,47.4 103.8,51.2 109.2,52.9 114.6,46.1 120.0,46.1 125.5,46.1 130.9,46.1 136.3,46.1 141.7,46.1 147.1,46.1 152.6,46.1 158.0,46.1 163.4,46.1 168.8,46.1 174.2,46.1 179.7,46.1 185.1,46.1 190.5,46.1 195.9,46.1 201.3,46.1 206.8,46.1 212.2,46.1 217.6,46.1 223.0,46.1 228.4,46.1 233.9,46.2 239.3,65.1 244.7,96.0 250.1,194.9 255.5,228.1 261.0,252.4 266.4,260.8 271.8,266.3 277.2,266.9 282.6,267.8 288.1,268.2 293.5,267.9 298.9,267.9 304.3,268.4 309.7,267.9 315.2,267.5 320.6,267.9 326.0,267.2 331.4,268.3 336.8,268.2 342.3,267.1 347.7,268.3 353.1,268.9 358.5,267.4 363.9,268.2 369.4,268.6 374.8,267.4 380.2,268.1 385.6,267.8 391.1,268.1 396.5,267.6 401.9,267.7 407.3,267.9 412.7,267.4 418.2,267.5 423.6,267.2 429.0,267.8 434.4,263.3 439.8,259.2 445.3,261.5 450.7,260.1 456.1,257.8 461.5,257.6 466.9,258.0 472.4,257.7 477.8,257.3 483.2,257.8 488.6,257.5 494.0,258.1 499.5,257.5 504.9,258.1 510.3,257.9 515.7,257.8 521.1,257.9 526.6,257.9 532.0,258.1 537.4,257.7 542.8,257.9 548.2,257.7 553.7,258.3 559.1,257.4 564.5,257.1 569.9,258.1 575.3,257.9 580.8,257.8 586.2,257.9 591.6,258.1 597.0,258.0 602.4,258.1 607.9,257.5 613.3,257.9 618.7,257.7 624.1,258.0 629.5,257.9 635.0,257.9 640.4,257.9 645.8,257.6 651.2,258.5 656.6,258.0 662.1,257.7 667.5,258.3 672.9,258.0 678.3,257.2 683.7,257.1 689.2,258.0 694.6,257.6 700.0,255.3"/>
<polyline fill="none" stroke="#8d6e63" stroke-width="1.8" points="55.0,46.1 60.4,46.1 65.8,46.1 71.3,46.1 76.7,46.1 82.1,46.1 87.5,46.1 92.9,46.3 98.4,47.4 103.8,46.1 109.2,46.1 114.6,46.1 120.0,46.1 125.5,46.1 130.9,46.1 136.3,46.1 141.7,46.1 147.1,46.1 152.6,46.1 158.0,46.1 163.4,46.1 168.8,46.1 174.2,46.1 179.7,46.1 185.1,46.1 190.5,46.1 195.9,46.1 201.3,46.1 206.8,46.1 212.2,46.1 217.6,46.1 223.0,46.1 228.4,46.2 233.9,46.4 239.3,46.6 244.7,46.9 250.1,48.0 255.5,50.0 261.0,51.2 266.4,52.9 271.8,56.4 277.2,62.9 282.6,69.5 288.1,77.1 293.5,86.9 298.9,97.6 304.3,112.7 309.7,130.4 315.2,149.3 320.6,169.9 326.0,189.4 331.4,203.9 336.8,211.8 342.3,216.7 347.7,220.0 353.1,220.8 358.5,221.7 363.9,224.0 369.4,224.8 374.8,226.5 380.2,228.0 385.6,227.7 391.1,227.9 396.5,223.8 401.9,221.7 407.3,220.2 412.7,219.5 418.2,219.3 423.6,218.3 429.0,218.3 434.4,216.4 439.8,213.8 445.3,209.1 450.7,200.0 456.1,187.7 461.5,173.1 466.9,156.3 472.4,135.5 477.8,119.0 483.2,107.3 488.6,95.8 494.0,82.2 499.5,72.1 504.9,63.8 510.3,59.9 515.7,57.2 521.1,54.5 526.6,53.4 532.0,52.2 537.4,51.6 542.8,51.0 548.2,50.6 553.7,50.3 559.1,49.9 564.5,49.5 569.9,49.3 575.3,48.5 580.8,48.2 586.2,47.8 591.6,47.2 597.0,47.0 602.4,46.6 607.9,46.3 613.3,46.1 618.7,46.1 624.1,46.1 629.5,46.1 635.0,46.1 640.4,46.1 645.8,46.1 651.2,46.1 656.6,46.1 662.1,46.1 667.5,46.1 672.9,46.1 678.3,46.1 683.7,46.1 689.2,46.1 694.6,46.1 700.0,46.1"/>
<polyline fill="none" stroke="#1f77b4" stroke-width="1.8" points="55.0,46.1 60.4,46.1 65.8,46.1 71.3,46.1 76.7,46.1 82.1,46.1 87.5,46.1 92.9,46.3 98.4,47.5 103.8,46.1 109.2,46.1 114.6,46.1 120.0,46.1 125.5,46.1 130.9,46.1 136.3,46.1 141.7,46.1 147.1,46.1 152.6,46.1 158.0,46.1 163.4,46.1 168.8,46.1 174.2,46.1 179.7,46.1 185.1,46.1 190.5,46.1 195.9,46.1 201.3,46.1 206.8,46.1 212.2,46.1 217.6,46.1 223.0,46.9 228.4,64.6 233.9,79.0 239.3,87.3 244.7,81.2 250.1,72.0 255.5,75.1 261.0,105.3 266.4,126.0 271.8,122.5 277.2,115.9 282.6,108.0 288.1,95.4 293.5,84.1 298.9,61.7 304.3,57.6 309.7,53.7 315.2,51.0 320.6,50.4 326.0,48.4 331.4,47.6 336.8,48.1 342.3,50.1 347.7,53.5 353.1,57.9 358.5,66.1 363.9,85.7 369.4,109.9 374.8,137.6 380.2,158.5 385.6,171.1 391.1,160.2 396.5,146.8 401.9,134.5 407.3,124.0 412.7,113.0 418.2,105.6 423.6,95.9 429.0,81.6 434.4,73.5 439.8,64.6 445.3,54.6 450.7,51.4 456.1,49.1 461.5,48.0 466.9,48.8 472.4,48.7 477.8,48.9 483.2,48.3 488.6,47.7 494.0,46.9 499.5,46.5 504.9,46.5 510.3,46.5 515.7,46.2 521.1,46.3 526.6,46.4 532.0,46.4 537.4,46.3 542.8,46.2 548.2,46.4 553.7,46.3 559.1,46.3 564.5,46.3 569.9,46.2 575.3,46.1 580.8,46.1 586.2,46.1 591.6,46.2 597.0,46.2 602.4,46.2 607.9,46.2 613.3,46.2 618.7,46.2 624.1,46.2 629.5,46.1 635.0,46.1 640.4,46.1 645.8,46.2 651.2,46.1 656.6,46.1 662.1,46.1 667.5,46.1 672.9,46.1 678.3,46.1 683.7,46.1 689.2,46.1 694.6,46.1 700.0,46.1"/>
<polyline fill="none" stroke="#ff7f0e" stroke-width="1.8" points="55.0,46.1 60.4,46.1 65.8,46.1 71.3,46.1 76.7,46.1 82.1,46.1 87.5,46.1 92.9,46.3 98.4,47.4 103.8,47.1 109.2,53.2 114.6,47.6 120.0,46.1 125.5,46.1 130.9,46.1 136.3,46.1 141.7,46.1 147.1,46.1 152.6,46.1 158.0,46.1 163.4,46.1 168.8,46.1 174.2,46.1 179.7,46.1 185.1,46.1 190.5,46.1 195.9,46.1 201.3,46.1 206.8,46.1 212.2,46.1 217.6,46.2 223.0,47.1 228.4,49.1 233.9,48.2 239.3,48.4 244.7,49.5 250.1,50.4 255.5,52.9 261.0,56.7 266.4,62.1 271.8,74.2 277.2,88.7 282.6,98.3 288.1,96.9 293.5,91.6 298.9,88.0 304.3,85.4 309.7,84.5 315.2,81.7 320.6,83.7 326.0,80.1 331.4,80.3 336.8,81.5 342.3,84.4 347.7,97.5 353.1,120.8 358.5,135.8 363.9,144.5 369.4,158.3 374.8,172.6 380.2,180.5 385.6,184.5 391.1,194.4 396.5,198.9 401.9,195.5 407.3,200.3 412.7,200.9 418.2,199.7 423.6,195.4 429.0,188.9 434.4,178.8 439.8,167.7 445.3,162.1 450.7,155.7 456.1,153.7 461.5,149.3 466.9,146.3 472.4,147.7 477.8,146.6 483.2,149.0 488.6,151.0 494.0,151.3 499.5,143.9 504.9,137.0 510.3,133.5 515.7,126.7 521.1,116.2 526.6,107.7 532.0,102.1 537.4,92.2 542.8,88.8 548.2,85.2 553.7,83.6 559.1,81.5 564.5,82.1 569.9,80.3 575.3,76.6 580.8,75.4 586.2,74.8 591.6,71.6 597.0,69.5 602.4,66.2 607.9,61.4 613.3,58.3 618.7,56.0 624.1,54.1 629.5,53.8 635.0,53.4 640.4,53.5 645.8,53.8 651.2,54.0 656.6,54.6 662.1,54.0 667.5,53.9 672.9,53.3 678.3,52.1 683.7,50.6 689.2,48.1 694.6,46.8 700.0,46.3"/>
<polyline fill="none" stroke="#2ca02c" stroke-width="1.8" points="55.0,46.1 60.4,46.1 65.8,46.1 71.3,46.1 76.7,46.1 82.1,46.1 87.5,46.1 92.9,46.3 98.4,47.4 103.8,46.1 109.2,46.1 114.6,46.1 120.0,46.1 125.5,46.1 130.9,46.1 136.3,46.1 141.7,46.1 147.1,46.1 152.6,46.1 158.0,46.1 163.4,46.1 168.8,46.1 174.2,46.1 179.7,46.1 185.1,46.1 190.5,46.1 195.9,46.1 201.3,46.1 206.8,46.1 212.2,46.1 217.6,46.1 223.0,46.8 228.4,46.2 233.9,46.3 239.3,46.6 244.7,47.1 250.1,46.9 255.5,47.2 261.0,48.1 266.4,51.0 271.8,53.8 277.2,55.1 282.6,55.9 288.1,56.1 293.5,56.5 298.9,47.4 304.3,46.2 309.7,46.1 315.2,46.1 320.6,46.1 326.0,46.1 331.4,46.1 336.8,46.2 342.3,46.1 347.7,46.1 353.1,46.3 358.5,47.2 363.9,50.1 369.4,58.8 374.8,76.7 380.2,91.2 385.6,99.1 391.1,86.8 396.5,78.1 401.9,69.7 407.3,66.3 412.7,57.8 418.2,52.2 423.6,49.0 429.0,47.4 434.4,47.0 439.8,46.3 445.3,46.5 450.7,46.3 456.1,46.2 461.5,46.2 466.9,46.2 472.4,46.1 477.8,46.1 483.2,46.2 488.6,46.1 494.0,46.1 499.5,46.2 504.9,46.2 510.3,46.2 515.7,46.1 521.1,46.1 526.6,46.1 532.0,46.1 537.4,46.2 542.8,46.2 548.2,46.2 553.7,46.1 559.1,46.1 564.5,46.2 569.9,46.1 575.3,46.1 580.8,46.2 586.2,46.1 591.6,46.1 597.0,46.1 602.4,46.1 607.9,46.1 613.3,46.2 618.7,46.2 624.1,46.2 629.5,46.1 635.0,46.1 640.4,46.2 645.8,46.1 651.2,46.2 656.6,46.1 662.1,46.1 667.5,46.1 672.9,46.1 678.3,46.1 683.7,46.1 689.2,46.1 694.6,46.1 700.0,46.1"/>
<text x="377.5" y="312" text-anchor="middle">Day</text>
<text transform="translate(14,157.5) rotate(-90)" text-anchor="middle">Essential fill rate</text>
<g transform="translate(55,338)"><rect width="12" height="12" fill="#9e9e9e"/><text x="16" y="10">Fixed allocation</text></g>
<g transform="translate(205,338)"><rect width="12" height="12" fill="#8d6e63"/><text x="16" y="10">Tuned (s,Q)</text></g>
<g transform="translate(355,338)"><rect width="12" height="12" fill="#1f77b4"/><text x="16" y="10">Cost-first</text></g>
<g transform="translate(505,338)"><rect width="12" height="12" fill="#ff7f0e"/><text x="16" y="10">Equity-aware (weighted)</text></g>
<g transform="translate(655,338)"><rect width="12" height="12" fill="#2ca02c"/><text x="16" y="10">ERRRA</text></g>
</svg>
